<svg width="483" height="481" xmlns="http://www.w3.org/2000/svg" xmlns:xlink="http://www.w3.org/1999/xlink" xml:space="preserve" overflow="hidden"><defs><clipPath id="clip0"><rect x="398" y="122" width="483" height="481"/></clipPath><clipPath id="clip1"><rect x="398" y="174" width="483" height="372"/></clipPath><clipPath id="clip2"><rect x="398" y="174" width="483" height="372"/></clipPath><clipPath id="clip3"><rect x="398" y="174" width="483" height="372"/></clipPath></defs><g clip-path="url(#clip0)" transform="translate(-398 -122)"><g clip-path="url(#clip1)"><g clip-path="url(#clip2)"><g clip-path="url(#clip3)"><path d="M90.6606 417.963 116.979 417.963 116.979 522.845 90.6606 522.845 90.6606 511.758C86.1931 516.184 80.9583 519.762 75.2111 522.317 69.8785 524.496 64.1651 525.592 58.4045 525.54 44.8646 525.54 33.151 520.287 23.264 509.782 13.3768 499.275 8.43331 486.211 8.43331 470.589 8.43331 454.401 13.2138 441.131 22.7749 430.777 32.336 420.425 43.9563 415.252 57.636 415.259 63.7228 415.218 69.7531 416.43 75.3509 418.821 81.1002 421.364 86.3 425.001 90.6606 429.53ZM62.9953 439.55C55.3078 439.359 47.9142 442.507 42.7254 448.183 37.3428 453.931 34.6515 461.304 34.6515 470.299 34.6515 479.295 37.406 486.75 42.9151 492.665 48.0732 498.376 55.4506 501.575 63.145 501.438 70.917 501.641 78.4029 498.501 83.7043 492.815 89.1136 487.066 91.8183 479.531 91.8183 470.21 91.8183 461.088 89.097 453.696 83.6545 448.034 78.2119 442.371 71.3256 439.543 62.9953 439.55Z" fill="#FD4B2D" transform="matrix(1.00105 0 0 1 193.465 174.95)"/><path d="M155.333 417.963 181.94 417.963 181.94 468.473C181.94 478.307 182.606 485.137 183.936 488.962 185.122 492.545 187.406 495.663 190.464 497.875 193.745 500.088 197.645 501.202 201.601 501.059 205.553 501.178 209.448 500.086 212.759 497.925 215.954 495.659 218.343 492.432 219.575 488.713 220.666 485.698 221.213 479.241 221.213 469.341L221.213 417.963 247.51 417.963 247.51 462.395C247.51 480.719 246.066 493.251 243.179 499.991 240.033 507.768 234.578 514.393 227.55 518.973 220.67 523.377 211.93 525.58 201.331 525.58 189.827 525.58 180.513 523.009 173.387 517.865 166.261 512.723 161.271 505.556 158.417 496.367 156.361 490.007 155.333 478.44 155.333 461.666Z" fill="#FD4B2D" transform="matrix(1.00105 0 0 1 193.465 174.95)"/><path d="M288.938 379.3 315.256 379.3 315.256 417.963 330.865 417.963 330.865 440.608 315.256 440.608 315.256 522.845 288.938 522.845 288.938 440.608 275.454 440.608 275.454 417.963 288.958 417.963Z" fill="#FD4B2D" transform="matrix(1.00105 0 0 1 193.465 174.95)"/><path d="M356.884 377.473 383.012 377.473 383.012 428.562C387.638 424.453 392.874 421.086 398.531 418.582 403.521 416.411 408.899 415.28 414.34 415.259 424.231 415.048 433.765 418.96 440.658 426.057 446.766 432.285 449.82 441.443 449.82 453.533L449.82 522.845 423.872 522.845 423.872 476.857C423.872 464.707 423.292 456.48 422.134 452.175 420.987 447.874 419.001 444.66 416.207 442.544 413.207 440.355 409.558 439.234 405.847 439.361 400.754 439.268 395.825 441.17 392.115 444.66 388.281 448.193 385.62 453.013 384.13 459.121 383.365 462.269 382.979 469.467 382.972 480.719L382.972 522.845 356.884 522.845Z" fill="#FD4B2D" transform="matrix(1.00105 0 0 1 193.465 174.95)"/><path d="M592.188 478.054 507.646 478.054C508.863 485.513 512.123 491.441 517.427 495.839 522.729 500.236 529.495 502.439 537.726 502.446 547.226 502.585 556.374 498.86 563.075 492.126L585.252 502.546C580.222 509.942 573.386 515.93 565.391 519.941 557.673 523.707 548.514 525.586 537.915 525.58 521.454 525.58 508.054 520.391 497.715 510.01 487.376 499.631 482.202 486.634 482.196 471.018 482.196 455.049 487.353 441.762 497.665 431.157 507.978 420.551 520.913 415.265 536.469 415.298 552.989 415.298 566.423 420.584 576.769 431.157 587.115 441.729 592.288 455.702 592.288 473.074ZM565.88 457.285C564.18 451.498 560.553 446.466 555.601 443.024 550.399 439.333 544.152 437.406 537.776 437.524 530.834 437.397 524.044 439.568 518.465 443.702 514.991 446.263 511.774 450.792 508.814 457.285Z" fill="#FD4B2D" transform="matrix(1.00105 0 0 1 193.465 174.95)"/><path d="M625.343 417.963 651.65 417.963 651.65 428.712C657.638 423.675 663.048 420.175 667.879 418.212 672.593 416.255 677.645 415.239 682.749 415.219 692.705 415.047 702.287 419.007 709.217 426.156 715.318 432.331 718.368 441.459 718.368 453.543L718.368 522.855 692.34 522.855 692.34 476.947C692.34 464.418 691.778 456.101 690.653 451.995 689.797 448.299 687.732 444.995 684.785 442.604 681.801 440.393 678.157 439.257 674.446 439.381 669.353 439.29 664.431 441.208 660.742 444.72 656.93 448.279 654.286 453.206 652.808 459.501 652.043 462.774 651.657 469.867 651.65 480.779L651.65 522.865 625.343 522.865Z" fill="#FD4B2D" transform="matrix(1.00105 0 0 1 193.465 174.95)"/><path d="M758.838 379.3 785.156 379.3 785.156 417.963 800.776 417.963 800.776 440.608 785.156 440.608 785.156 522.845 758.838 522.845 758.838 440.608 745.345 440.608 745.345 417.963 758.838 417.963Z" fill="#FD4B2D" transform="matrix(1.00105 0 0 1 193.465 174.95)"/><path d="M836.963 374.769C841.441 374.711 845.74 376.519 848.83 379.758 852.088 382.952 853.892 387.343 853.821 391.905 853.896 396.399 852.125 400.728 848.92 403.88 845.879 407.108 841.628 408.917 837.193 408.871 832.667 408.935 828.321 407.096 825.218 403.801 821.949 400.557 820.147 396.119 820.227 391.515 820.222 382.267 827.706 374.76 836.953 374.739Z" fill="#FD4B2D" transform="matrix(1.00105 0 0 1 193.465 174.95)"/><path d="M823.8 417.963 850.118 417.963 850.118 522.845 823.8 522.845Z" fill="#FD4B2D" transform="matrix(1.00105 0 0 1 193.465 174.95)"/><path d="M886.066 377.473 912.384 377.473 912.384 461.197 951.118 417.963 984.173 417.963 938.992 468.224 989.572 522.845 956.926 522.845 912.384 474.501 912.384 522.845 886.066 522.845Z" fill="#FD4B2D" transform="matrix(1.00105 0 0 1 193.465 174.95)"/><path d="M465.578 78.5845 482.196 78.5845 482.196 126.07 465.578 126.07Z" fill="#FD4B2D" transform="matrix(1.00105 0 0 1 193.465 174.95)"/><path d="M508.804 76.5884 525.42 76.5884 525.42 113.725 508.804 113.725Z" fill="#FD4B2D" transform="matrix(1.00105 0 0 1 193.465 174.95)"/><path d="M266.563 130.821C244.327 130.836 223.886 143.03 213.308 162.588L241.522 162.588C253.998 151.83 272.122 148.686 285.225 162.588L315.056 162.588C303.399 146.85 285.905 130.821 266.563 130.821Z" fill="#FD4B2D" transform="matrix(1.00105 0 0 1 193.465 174.95)"/><path d="M306.813 191.242C267.95 272.521 199.815 203.218 241.472 162.588L213.308 162.588C191.192 201.122 221.751 253.08 266.563 251.902 301.214 251.902 329.827 200.463 329.827 191.362 329.827 187.369 324.239 175.054 315.006 162.588L285.175 162.588C295.066 171.56 303.689 184.635 306.813 191.242Z" fill="#FD4B2D" transform="matrix(1.00105 0 0 1 193.465 174.95)"/><path d="M680.872 78.0056 680.872 292.581C680.823 333.761 647.45 367.129 606.271 367.173L574.613 367.173 574.613 294.118 423.412 294.118 423.412 367.173 391.755 367.173C350.576 367.129 317.202 333.761 317.152 292.581L317.152 225.105 556.898 225.105 556.898 96.0499 441.127 96.0499 441.127 168.556 317.152 168.556 317.152 78.0056C317.15 75.1437 317.32 72.2842 317.662 69.4426 318.04 66.0541 318.654 62.696 319.498 59.3924 319.778 58.3345 320.086 57.2766 320.396 56.2487 320.461 55.9805 320.545 55.717 320.646 55.4602 320.815 54.9313 320.975 54.4622 321.144 53.9333 321.314 53.4043 321.514 52.9352 321.703 52.3963 321.893 51.8573 322.123 51.2486 322.342 50.6897 322.562 50.1308 322.821 49.5819 323.041 49.023 324.902 44.6257 327.171 40.4124 329.817 36.4379L329.907 36.3281C330.576 35.3301 331.275 34.3321 331.993 33.3939 332.612 32.5855 333.221 31.807 333.839 31.0286 334.458 30.2501 335.316 29.2721 336.075 28.4337 336.834 27.5954 337.552 26.787 338.33 26.0085L338.41 25.9187C338.8 25.4796 339.218 25.0804 339.668 24.6612 342.432 21.9665 345.398 19.4875 348.541 17.2459 349.379 16.6271 350.267 16.0483 351.165 15.4594 352.063 14.8706 353.161 14.2019 354.159 13.5931 356.155 12.4454 358.152 11.3875 360.148 10.4394 360.796 10.13 361.464 9.82057 362.144 9.5511 364.981 8.30618 367.898 7.25257 370.877 6.39734 372.023 6.05801 373.161 5.74862 374.339 5.46918 374.888 5.32946 375.447 5.18973 376.036 5.07994 379.366 4.36316 382.74 3.8697 386.136 3.60288L387.613 3.52303C387.863 3.52303 388.092 3.52303 388.341 3.52303 389.449 3.46315 390.597 3.44319 391.745 3.44319L606.271 3.44319C607.418 3.44319 608.566 3.44319 609.674 3.52303 609.923 3.52303 610.152 3.52303 610.402 3.52303L611.88 3.60288C615.275 3.8697 618.65 4.36316 621.979 5.07994 622.568 5.18973 623.127 5.32946 623.675 5.46918 624.853 5.74862 625.991 6.05801 627.139 6.39734 630.117 7.25257 633.035 8.30618 635.872 9.5511 636.51 9.82057 637.18 10.13 637.868 10.4394 639.924 11.3875 641.86 12.4354 643.856 13.5931 644.854 14.2019 645.852 14.8206 646.85 15.4594 647.848 16.0981 648.637 16.6271 649.475 17.2459 653.139 19.8527 656.559 22.7855 659.694 26.0085 660.473 26.787 661.232 27.5954 661.95 28.4337 662.669 29.2721 663.457 30.1603 664.185 31.0286 664.915 31.8968 665.413 32.5855 666.032 33.3939 666.751 34.3919 667.449 35.39 668.117 36.3281L668.207 36.4379C670.855 40.4124 673.123 44.6257 674.984 49.023 675.204 49.5819 675.454 50.1308 675.683 50.6897 675.912 51.2486 676.102 51.8075 676.322 52.3963 676.542 52.9852 676.71 53.3943 676.88 53.9333 677.05 54.4722 677.21 54.9313 677.38 55.4602 677.481 55.717 677.564 55.9805 677.63 56.2487 677.938 57.2468 678.248 58.3345 678.528 59.3924 679.371 62.696 679.984 66.0541 680.364 69.4426 680.705 72.2842 680.875 75.1437 680.873 78.0056Z" fill="#FD4B2D" transform="matrix(1.00105 0 0 1 193.465 174.95)"/><path d="M668.197 36.4379 329.867 36.4379C343.71 15.8167 366.909 3.43891 391.745 3.42322L606.32 3.42322C631.157 3.43891 654.356 15.8167 668.197 36.4379Z" fill="#FD4B2D" transform="matrix(1.00105 0 0 1 193.465 174.95)"/><path d="M680.394 69.4526 317.632 69.4526C318.973 57.625 323.158 46.2977 329.827 36.4379L668.157 36.4379C674.841 46.294 679.039 57.6215 680.394 69.4526Z" fill="#FD4B2D" transform="matrix(1.00105 0 0 1 193.465 174.95)"/><path d="M680.892 78.0056 680.892 102.467 556.898 102.467 556.898 96.0499 441.127 96.0499 441.127 102.467 317.132 102.467 317.132 78.0056C317.127 75.1439 317.293 72.2844 317.632 69.4426L680.394 69.4426C680.731 72.2844 680.898 75.1439 680.892 78.0056Z" fill="#FD4B2D" transform="matrix(1.00105 0 0 1 193.465 174.95)"/><path d="M317.132 102.467 441.157 102.467 441.157 135.492 317.132 135.492Z" fill="#FD4B2D" transform="matrix(1.00105 0 0 1 193.465 174.95)"/><path d="M556.868 102.467 680.892 102.467 680.892 135.492 556.868 135.492Z" fill="#FD4B2D" transform="matrix(1.00105 0 0 1 193.465 174.95)"/><path d="M317.132 135.502 441.157 135.502 441.157 168.506 317.132 168.506Z" fill="#FD4B2D" transform="matrix(1.00105 0 0 1 193.465 174.95)"/><path d="M556.868 135.502 680.892 135.502 680.892 168.506 556.868 168.506Z" fill="#FD4B2D" transform="matrix(1.00105 0 0 1 193.465 174.95)"/></g></g></g></g></svg>